<svg id="Layer_1" enable-background="new 0 0 64 64" height="512" viewBox="0 0 64 64" width="512" xmlns="http://www.w3.org/2000/svg"><path d="m38.1 23.4 10 5c.6.3 1.2.3 1.8 0l10-5c.7-.3 1.1-1 1.1-1.8v-11.5c0-.8-.4-1.5-1.1-1.8l-10-5c-.6-.3-1.2-.3-1.8 0l-10 5c-.7.3-1.1 1-1.1 1.8v11.5c0 .8.4 1.5 1.1 1.8z" fill="#087f5d"/><path d="m49 14.9 11.7-5.9c-.2-.3-.5-.6-.8-.7l-10-5c-.6-.3-1.2-.3-1.8 0l-10 5c-.3.2-.6.4-.8.7z" fill="#44d381"/><path d="m37.3 9c-.2.4-.3.7-.3 1.1v11.5c0 .8.4 1.5 1.1 1.8l10 5c.3.1.6.2.9.2v-13.7z" fill="#06c15a"/><path d="m4.1 23.4 10 5c.6.3 1.2.3 1.8 0l10-5c.7-.3 1.1-1 1.1-1.8v-11.5c0-.8-.4-1.5-1.1-1.8l-10-5c-.6-.3-1.2-.3-1.8 0l-10 5c-.7.4-1.1 1.1-1.1 1.8v11.5c0 .8.4 1.5 1.1 1.8z" fill="#087f5d"/><path d="m15 14.9 11.7-5.9c-.2-.3-.5-.6-.8-.7l-10-5c-.6-.3-1.2-.3-1.8 0l-10 5c-.3.2-.6.4-.8.7z" fill="#44d381"/><path d="m3.3 9c-.2.4-.3.7-.3 1.1v11.5c0 .8.4 1.5 1.1 1.8l10 5c.3.1.6.2.9.2v-13.7z" fill="#06c15a"/><path d="m38.1 55.4 10 5c.6.3 1.2.3 1.8 0l10-5c.7-.3 1.1-1 1.1-1.8v-11.5c0-.8-.4-1.5-1.1-1.8l-10-5c-.6-.3-1.2-.3-1.8 0l-10 5c-.7.3-1.1 1-1.1 1.8v11.5c0 .8.4 1.5 1.1 1.8z" fill="#066b93"/><path d="m51 22.1c0-.7-.4-1.4-1.1-1.8l-17-8.9c-.6-.3-1.3-.3-1.9 0l-17 8.9c-.7.3-1.1 1-1.1 1.8v19.6c0 .7.4 1.4 1.1 1.8l17 8.9c.6.3 1.3.3 1.9 0l17-8.9c.7-.3 1.1-1 1.1-1.8z" fill="#06688f"/><path d="m31.1 11.4-17 8.9c-.3.2-.6.4-.8.7l17.8 9.4c.6.3 1.3.3 1.9 0l17.7-9.4c-.2-.3-.5-.6-.8-.7l-17-8.9c-.6-.3-1.2-.3-1.8 0z" fill="#0778a6"/><path d="m14.3 21.6-1-.5c-.2.3-.3.7-.3 1v19.6c0 .7.4 1.4 1.1 1.8l17 8.9c.3.2.6.2.9.2v-22c-.3 0-.6-.1-.9-.2z" fill="#0888ba"/><path d="m38.1 55.4 10 5c.6.3 1.2.3 1.8 0l10-5c.7-.3 1.1-1 1.1-1.8v-11.5c0-.8-.4-1.5-1.1-1.8l-10-5c-.6-.3-1.2-.3-1.8 0l-10 5c-.7.3-1.1 1-1.1 1.8v11.5c0 .8.4 1.5 1.1 1.8z" fill="#087f5d"/><path d="m49 46.9 11.7-5.9c-.2-.3-.5-.6-.8-.7l-10-5c-.6-.3-1.2-.3-1.8 0l-10 5c-.3.2-.6.4-.8.7z" fill="#44d381"/><path d="m37.3 41c-.2.3-.3.7-.3 1.1v11.5c0 .8.4 1.5 1.1 1.8l10 5c.3.1.6.2.9.2v-13.7z" fill="#06c15a"/><path d="m4.1 55.4 10 5c.6.3 1.2.3 1.8 0l10-5c.7-.3 1.1-1 1.1-1.8v-11.5c0-.8-.4-1.5-1.1-1.8l-10-5c-.6-.3-1.2-.3-1.8 0l-10 5c-.7.3-1.1 1-1.1 1.8v11.5c0 .8.4 1.5 1.1 1.8z" fill="#087f5d"/><path d="m15 46.9 11.7-5.9c-.2-.3-.5-.6-.8-.7l-10-5c-.6-.3-1.2-.3-1.8 0l-10 5c-.3.2-.6.4-.8.7z" fill="#44d381"/><path d="m3.3 41c-.2.4-.3.7-.3 1.1v11.5c0 .8.4 1.5 1.1 1.8l10 5c.3.1.6.2.9.2v-13.7z" fill="#06c15a"/><path d="m47 40.9h-2v-7.1c0-.4-.2-.7-.5-.9l-3.9-2.1.9-1.8 3.9 2.1c1 .5 1.6 1.5 1.6 2.7z" fill="#e8ce0c"/><path d="m19 40.9h-2v-7.1c0-1.1.6-2.1 1.6-2.7l3.9-2.1.9 1.8-3.9 2.1c-.3.2-.5.5-.5.9z" fill="#f9e310"/></svg>